<?xml version="1.0" encoding="utf-8"?>
<!-- Generator: Adobe Illustrator 14.0.0, SVG Export Plug-In . SVG Version: 6.00 Build 43363)  -->
<!DOCTYPE svg PUBLIC "-//W3C//DTD SVG 1.1//EN" "http://www.w3.org/Graphics/SVG/1.1/DTD/svg11.dtd">
<svg version="1.1" id="Logo" xmlns="http://www.w3.org/2000/svg" xmlns:xlink="http://www.w3.org/1999/xlink" x="0px" y="0px"
	 width="333.185px" height="320.173px" viewBox="0 0 333.185 320.173" enable-background="new 0 0 333.185 320.173"
	 xml:space="preserve">
<g>
	<g>
		<defs>
			<rect id="SVGID_1_" width="333.185" height="320.173"/>
		</defs>
		<clipPath id="SVGID_2_">
			<use xlink:href="#SVGID_1_"  overflow="visible"/>
		</clipPath>
		<rect y="164.34" clip-path="url(#SVGID_2_)" fill="#D63A4A" width="333.185" height="155.833"/>
		<path clip-path="url(#SVGID_2_)" fill="#FFFFFF" d="M78.573,267.001l6.806-15.808l6.26,15.808H78.573 M106.033,280.305
			l-16.274-37.248c-0.545-1.41-1.016-2.349-2.659-2.349h-1.016l-18.782,39.908c-0.39,0.782-0.471,1.253-0.471,1.88
			c0,0.778,0.864,0.935,1.569,0.935h4.146c-0.078-0.234-0.078-0.622-0.078-0.935c0-0.709,0.156-1.487,0.467-2.348l3.991-9.706
			h16.118l4.384,10.878c0.549,1.332,1.172,2.032,2.741,2.032h7.978C107.364,282.809,106.43,281.165,106.033,280.305z
			 M41.625,204.112c-0.779,0-1.795-0.156-2.422-0.156c0,0,0-9.391,0-12.989l3.053-0.078c3.99-0.077,7.043,1.566,7.043,6.027
			C49.299,201.685,45.931,204.112,41.625,204.112z M44.132,188.226l-11.034-0.073c0.471,0.7,0.627,3.13,0.705,5.474
			c0.155,4.384,0,8.842,0,13.148c0,3.049-0.156,6.023-0.156,9.08c0,1.405,0.623,2.503,2.192,2.503h3.753
			c-0.312-3.683-0.39-7.907-0.39-11.82c0.935,0.078,1.877,0.078,2.815,0.078c6.183,0,12.915-2.972,12.915-10.092
			C54.932,190.185,49.532,188.308,44.132,188.226z M70.86,203.777h-1.721v-3.05c0-2.272,0.082-7.673,0.156-10.021
			c0.942,0,1.803-0.074,2.659-0.074c3.995,0,7.752,2.266,7.752,6.569C79.706,202.367,75.162,203.854,70.86,203.777z M77.51,205.419
			c4.068-1.254,7.591-4.069,7.591-8.92c0-6.494-5.711-8.371-11.111-8.371c-2.425,0-4.929-0.082-7.354-0.082
			c-1.176,0-2.43,0.082-3.602,0.082c0.393,0.545,0.627,1.328,0.705,2.032c0.234,3.364,0.16,8.526,0.16,12.755
			c0,2.975-0.082,6.023-0.16,8.998c-0.078,1.487-0.155,2.893-0.155,4.38c0,1.414,0.86,1.958,2.192,1.958
			c1.331,0,2.659-0.077,3.99-0.155c-0.471-2.504-0.545-8.06-0.545-11.816c0.779,0,3.204,0,3.204,0
			c2.348,3.757,4.618,7.354,7.354,10.956c2.27,3.13,4.852,4.38,8.765,4.38c0.471,0,1.176,0,1.643,0
			C88.232,220.366,81.657,211.758,77.51,205.419z M148.537,265.751c-1.876,0-3.597,0.074-5.478,0.074c0-2.422,0-5.786,0-9.469
			c0-5.631,0.082-12.047,0.471-17.524c1.646-0.156,3.519-0.315,5.322-0.315c7.981,0,14.397,4.224,14.397,12.832
			C163.25,260.04,156.908,265.751,148.537,265.751z M158.321,267.939c8.137-2.577,14.004-8.997,14.004-17.839
			c0-11.268-10.095-15.419-19.872-15.419c-6.342,0-12.759,0.16-19.175,0.234c0.783,1.331,1.098,4.544,1.098,6.187
			c0,7.744,0.156,14.787,0.156,20.188c0,14.947-0.705,23.556-0.705,26.37c0,1.176,0.467,1.331,1.483,1.331
			c3.368,0,6.576-0.081,9.866-0.081c-0.471-0.464-0.787-1.563-1.02-2.971c-0.705-5.012-1.016-10.879-1.016-16.356
			c2.11,0,4.524-0.074,6.634-0.156c2.764,4.373,6.197,9.461,10.096,14.631c5.897,7.741,13.91,16.669,23.239,16.669
			c2.43,0,4.523-0.234,6.946-0.468C179.139,296.416,164.897,277.801,158.321,267.939z M200.362,284.451h-6.65
			c-1.565,0-2.348-0.549-2.663-2.109c-0.234-1.57-0.308-3.835-0.39-5.479c-0.155-3.521-0.237-8.765-0.237-13.144
			c0-8.063,0.393-16.123,0.709-24.104c1.876-0.312,3.835-0.471,5.785-0.471c13.932,0,23.556,7.903,23.556,22.535
			C220.472,274.592,214.21,284.451,200.362,284.451z M200.21,235.076c-6.969,0-14.562,0.155-20.58,0.155
			c1.167,1.643,1.643,4.773,1.954,11.112c0.233,4.617,0.39,9.313,0.39,14.007c0,5.712-0.078,11.424-0.233,17.141
			c-0.156,3.126-0.39,6.178-0.39,9.309c0,1.486,1.253,2.266,2.577,2.266h15.651c17.373,0,30.361-9.62,30.361-27.85
			C229.94,242.507,217.578,235.076,200.21,235.076z M275.582,294.387h-5.4c-1.331,0-2.114-0.623-2.188-1.722
			c-0.32-5.162-0.476-9.856-0.476-15.103c0-6.493,0.155-13.377,0.549-19.56c1.721-0.237,2.818-0.315,4.614-0.315
			c0.786,0,1.568,0,2.272,0.078c0,6.342-0.155,12.677-0.466,19.015c0,1.098,0.935,1.799,2.11,1.799h12.677
			c0.782,0,1.642,0,2.426-0.073C290.917,287.66,285.907,294.387,275.582,294.387z M289.897,274.905h-5.318
			c-1.33,0-2.036-0.704-2.11-1.803c-0.311-4.691-0.552-9.383-0.552-13.616c5.792,2.586,9.546,7.908,9.866,15.341
			C291.155,274.827,290.525,274.905,289.897,274.905z M299.366,272.245c-1.089-10.64-7.747-15.888-17.371-17.375
			c0-5.867,0.237-10.949,0.474-16.353c1.8-0.233,2.738-0.39,4.614-0.39c11.267,0,19.093,6.728,19.093,18.312
			C306.176,263.248,303.984,269.037,299.366,272.245z M290.058,234.916c-5.557,0-11.346,0-16.983,0.082
			c0.704,0.86,1.176,2.737,1.25,3.99c0.397,5.167,0.63,10.174,0.63,15.418c-5.322,0-10.956,0-16.278,0.074
			c0.706,0.86,1.1,2.741,1.255,3.991c0.471,5.559,0.627,10.799,0.627,16.355c0,7.116-0.156,14.32-0.471,21.441
			c-0.074,1.09,0.938,1.876,2.114,1.876h12.677c13.689,0,23.865-7.354,24.566-21.125c8.689-2.975,14.398-10.097,14.398-20.971
			C313.843,240.865,304.14,234.916,290.058,234.916z M259.88,215.706c-7.04,0-10.559-5.949-10.559-12.365
			c0-6.494,3.519-12.443,10.559-12.443c7.125,0,10.645,5.793,10.645,12.443C270.524,210.54,267.947,215.706,259.88,215.706z
			 M259.88,187.771c-10.013,0-16.819,5.322-16.819,15.57c0,9.624,7.515,15.491,16.819,15.491c9.395,0,16.905-5.785,16.905-15.491
			C276.785,193.638,269.274,187.771,259.88,187.771z M74.57,234.453c-5.318-2.741-12.209-4.307-18.462-4.307
			c-20.978,0-34.9,16.901-34.9,37.559c0,20.032,15.255,33.021,34.741,33.021c6.494,0,15.18-1.878,20.425-5.868l-0.787-6.654
			c-3.519,3.68-10.563,6.654-15.648,6.654c-17.29,0-28.795-14.319-28.795-30.982c0-14.247,8.137-28.329,23.789-28.329
			c5.241,0,10.563,1.643,14.476,5.084c1.876,1.644,4.302,4.93,4.536,7.354c1.487-2.269,3.991-6.26,3.991-8.997
			C77.935,236.874,76.213,235.312,74.57,234.453z M126.617,264.653c-3.13,1.565-7.276,1.565-11.812,1.565
			c-1.176,0-1.332-0.7-1.414-2.11c0-1.176,0-2.818,0-3.912v-7.044c4.228,0,8.69,0.155,11.505,1.095l0.159-2.426
			c0.074-1.644-0.864-2.27-3.13-2.27c-2.503,0-5.4,0.393-8.608,0.393c0-1.881,0.074-4.306,0.074-6.183
			c0-1.565,0.082-3.913,0.16-5.478c9.158,0,11.423,0.782,12.755,1.331c0-0.708,0-1.725,0-1.725c0-1.562-1.176-3.049-2.974-3.049
			c0,0-1.643,0-17.213,0c0.778,0.861,0.86,3.991,0.86,5.085c0.156,4.617,0.078,11.189,0.078,16.823c0,3.29-0.078,6.654-0.233,10.099
			c-0.082,1.718,0.312,2.734,2.114,2.734c4.847,0,14.865,0,14.865,0c1.565,0,2.814-0.782,2.814-2.426
			C126.617,267.157,126.617,266.456,126.617,264.653z M102.926,201.745c0-6.031,0.312-7.438,0.312-11.194
			c0-1.721-0.623-2.582-2.504-2.582h-3.597c0.312,2.975,0.467,6.183,0.467,14.083c0,7.515-0.308,9.161-0.308,13.771
			c0,1.568,0.778,2.503,2.344,2.503h3.756C103.082,214.888,102.926,209.799,102.926,201.745z M134.77,188.117h-17.212
			c0.078,1.647,0.233,3.13,0.393,4.773c0.074,2.896,0.156,9.01,0.156,11.201c0,5.236-0.238,8.048-0.238,12.116
			c0,1.565,0.865,2.192,2.352,2.192h3.753c-0.234-3.524-0.471-6.954-0.471-10.478v-3.99c2.741,0,9.624,0.077,12.053,0.786
			c0-1.413,0.389-4.072-1.721-4.072c-2.27,0-6.187,0.472-10.333,0.472v-6.347c0-1.175,0.082-2.347,0.159-3.523
			c3.208,0,9.858-0.078,12.911,1.094C136.572,190.78,137.043,188.117,134.77,188.117z M169.522,187.934l-4.064,0.078
			c0,1.098-1.647,4.073-3.364,6.965c-1.725,2.737-3.445,5.479-4.229,6.576c-2.422-3.917-4.77-7.907-7.121-11.82
			c-0.779-1.332-1.877-1.721-3.364-1.721h-4.933c4.229,5.794,8.142,11.739,11.898,17.839v3.445c0.074,2.815-0.233,5.864-0.233,7.511
			c0,1.254,1.09,1.565,2.032,1.565h4.146c-0.467-4.303-0.467-8.764-0.467-13.145c2.188-3.757,4.617-7.358,7.194-10.878
			c1.017-1.561,2.192-3.048,3.212-4.536c0.156-0.315,0.39-0.627,0.39-1.016C170.62,188.167,170.075,187.934,169.522,187.934z
			 M181.817,195.02c0-2.737,2.426-4.303,5.011-4.303c2.815,0,5.081,1.566,6.568,3.757c0.553-0.938,1.644-2.425,1.644-3.757
			c0-2.581-5.867-3.208-7.822-3.208c-5.244,0-10.407,2.893-10.407,8.608c0,10.174,14.238,7.354,14.238,14.005
			c0,3.208-2.271,5.166-5.475,5.166c-3.29,0-6.965-1.802-8.686-4.461c-0.233,1.175-0.783,2.429-0.783,3.683
			c0,1.25,0.468,2.188,1.644,2.737c1.881,1.017,4.306,1.483,6.412,1.483c6.027,0,11.82-3.442,11.82-10.014
			C195.981,199.17,181.817,202.067,181.817,195.02z M261.608,240.518h-5.007c0.078,0.627-0.078,1.881-0.39,2.504
			c-1.021,2.113-2.271,4.306-3.441,6.42c-1.331,2.421-3.762,6.412-5.015,8.37c-3.048-4.929-5.63-10.014-8.37-15.102
			c-0.623-1.176-1.722-2.11-3.909-2.11h-6.104c5.24,7.51,9.313,14.32,13.696,21.752c0,4.302,0.074,9.862-0.319,14.398
			c-0.074,1.328,0.783,2.113,2.508,2.113h5.556c-0.55-5.478-0.55-11.656-0.55-16.9c3.598-6.498,7.749-12.521,12.209-19.098
			c0.313-0.467,0.468-0.935,0.391-1.331C262.862,240.99,262.472,240.518,261.608,240.518z M231.87,203.34l-3.363,0.077
			c0.39,1.177,0.39,4.463,0.39,6.572c0,1.487-0.078,2.975-0.078,4.462c-1.799,0.783-4.54,1.016-6.493,1.016
			c-7.281,0-11.58-5.162-11.58-12.127c0-6.966,3.99-12.443,11.345-12.443c3.992,0,8.139,2.425,10.097,4.229l0.938-2.66
			c0.391-1.414-0.154-2.27-1.02-2.663c-3.13-1.328-5.631-2.033-10.015-2.033c-10.173,0-17.605,4.77-17.605,15.57
			c0,10.325,7.593,15.491,17.373,15.491c3.676,0,8.843-1.016,12.517-2.11c0-1.486,0-2.74,0-3.99c0-2.426,0-4.618,0.082-7.121
			C234.53,204.438,233.591,203.262,231.87,203.34z M304.151,213.826c-1.798,1.094-8.765,1.171-12.988,1.171
			c-0.074-5.084-0.074-10.641-0.074-15.881c0-2.818,0.156-5.833,0.233-8.807c0.078-1.487-0.388-2.27-3.052-2.27h-3.13
			c0.233,3.832,0.39,7.557,0.39,11.155v8.215c0,2.896-0.078,5.794-0.234,8.76c-0.078,1.18,0.156,2.274,2.818,2.274
			c12.989,0,14.005,0,14.005,0c1.094,0,2.032-1.332,2.032-2.192C304.151,216.25,304.151,215.467,304.151,213.826z"/>
		<rect y="0.004" clip-path="url(#SVGID_2_)" fill="#D63A4A" width="333.185" height="156.495"/>
	</g>
	<path fill="#FFFFFF" d="M131.106,53.936c-1.877,0-3.598,0.078-5.478,0.078c0-2.425,0-5.793,0-9.469
		c0-5.633,0.082-12.05,0.471-17.528c1.643-0.156,3.52-0.312,5.322-0.312c7.981,0,14.398,4.221,14.398,12.828
		C145.819,48.22,139.481,53.936,131.106,53.936 M140.89,56.123c8.137-2.581,14.004-8.998,14.004-17.839
		c0-11.268-10.091-15.414-19.872-15.414c-6.338,0-12.758,0.156-19.175,0.234c0.783,1.327,1.098,4.54,1.098,6.183
		c0,7.744,0.156,14.787,0.156,20.187c0,14.947-0.701,23.555-0.701,26.37c0,1.176,0.463,1.332,1.479,1.332
		c3.368,0,6.576-0.082,9.862-0.082c-0.467-0.467-0.783-1.561-1.016-2.97c-0.701-5.011-1.016-10.875-1.016-16.353
		c2.11,0,4.524-0.082,6.638-0.159c2.76,4.372,6.195,9.461,10.092,14.631c5.898,7.74,13.911,16.667,23.24,16.667
		c2.43,0,4.52-0.234,6.945-0.467C161.704,84.592,147.466,65.985,140.89,56.123z M81.691,54.932l6.884-15.803l6.26,15.803H81.691z
		 M109.233,68.236L92.958,30.988c-0.627-1.409-1.02-2.344-2.663-2.344l-1.016,0.074l-18.777,39.83
		c-0.39,0.86-0.472,1.25-0.472,1.958c0,0.705,0.865,0.86,1.57,0.86h4.146c-0.082-0.237-0.082-0.626-0.082-0.942
		c0-0.701,0.156-1.483,0.471-2.348l3.991-9.698h16.041l4.462,10.956c0.545,1.328,1.172,1.951,2.737,1.951h7.981
		C110.564,70.74,109.626,69.096,109.233,68.236z M189.834,118.157h-1.725v-3.052c0-2.27,0.077-7.749,0.237-10.014
		c0.856,0,1.717-0.082,2.581-0.082c3.987,0,7.744,2.27,7.744,6.576C198.672,116.748,194.136,118.157,189.834,118.157z
		 M196.484,119.722c4.068-1.171,7.588-3.99,7.588-8.842c0-6.494-5.638-8.375-11.112-8.375c-2.425,0-4.851-0.074-7.351-0.074
		c-1.176,0-2.351,0-3.601,0.074c0.471,0.553,0.627,1.332,0.7,2.04c0.237,3.364,0.159,8.445,0.159,12.673
		c0,3.052-0.077,6.105-0.159,9.076c-0.073,1.409-0.155,2.897-0.155,4.302c0,1.487,0.86,1.958,2.191,1.958
		c1.328,0,2.659-0.078,3.994-0.078c-0.475-2.503-0.553-8.06-0.553-11.812c0.779,0,3.209,0,3.209,0
		c2.352,3.752,4.617,7.272,7.358,10.948c2.266,3.13,4.852,4.388,8.76,4.388c0.471,0,1.176,0,1.644,0
		C207.202,134.743,200.708,126.06,196.484,119.722z M184.434,72.538h-6.649c-1.644,0-2.43-0.545-2.667-2.188
		c-0.308-1.569-0.308-3.757-0.386-5.404c-0.159-3.52-0.233-8.764-0.233-13.144c0-8.056,0.312-16.119,0.619-24.174
		c1.958-0.315,3.917-0.397,5.875-0.397c13.923,0,23.474,7.907,23.474,22.539C204.466,62.602,198.278,72.538,184.434,72.538z
		 M184.278,23.166c-7.043,0-14.632,0.074-20.585,0.074c1.099,1.721,1.569,4.851,1.881,11.189c0.312,4.617,0.39,9.316,0.39,14.008
		c0,5.712-0.078,11.346-0.234,17.057c-0.077,3.13-0.311,6.261-0.311,9.391c0,1.406,1.25,2.27,2.585,2.27h15.565
		c17.45,0,30.438-9.624,30.438-27.857C214.008,30.595,201.646,23.166,184.278,23.166z M58.922,102.35h-2.814
		c0.463,3.212,0.545,5.244,0.545,8.453c0,1.799-0.082,5.084-0.082,7.666c0,6.187-1.877,11.038-9.072,11.038
		c-8.297,0-9.157-5.007-9.157-12.054c0-4.536,0.471-9.858,0.471-13.693c0-1.016-0.627-1.409-1.643-1.409h-4.388
		c0.238,3.368,0.316,5.56,0.316,10.8c0,2.188-0.156,5.163-0.156,7.433c0,8.998,5.085,12.599,13.693,12.599
		c8.215,0,13.381-4.38,13.693-12.754c0.233-7.981,0.704-13.771,0.704-16.434C61.033,102.665,60.095,102.35,58.922,102.35z
		 M96.381,102.505h-3.13c0.234,5.088,0.312,10.178,0.312,15.258v5.248c-7.354-6.81-14.161-13.775-21.359-20.818h-2.114
		c0.078,1.41,0.078,2.897,0.078,4.384c0,5.868,0.078,13.849-0.234,17.606c-0.238,3.991-0.549,5.007-0.549,7.195
		c0,1.021,0.549,1.332,1.565,1.332c1.098,0,2.188-0.078,3.364-0.078c-0.471-3.208-0.549-6.417-0.549-9.703
		c0-3.753,0.16-7.276,0.16-11.03c7.276,7.122,14.475,13.771,21.362,21.281h2.11c-0.159-5.088-0.233-10.169-0.233-15.18
		c0-2.815,0.233-5.4,0.312-7.985c0.078-2.188,0.39-4.61,0.39-5.941C97.865,103.059,97.32,102.505,96.381,102.505z M112.834,116.121
		c0-6.023,0.312-7.433,0.312-11.186c0-1.721-0.545-2.585-2.425-2.585h-3.679c0.315,2.974,0.471,6.183,0.471,14.086
		c0,7.51-0.311,9.235-0.311,13.771c0,1.565,0.782,2.503,2.425,2.503h3.675C112.991,129.268,112.834,124.184,112.834,116.121z
		 M74.73,22.458c-5.249-2.737-12.127-4.299-18.393-4.299c-20.969,0-34.896,16.897-34.896,37.556c0,20.113,15.258,33.02,34.74,33.02
		c6.494,0,15.185-1.877,20.425-5.868l-0.786-6.65c-3.52,3.757-10.559,6.65-15.726,6.65c-17.217,0-28.718-14.32-28.718-30.983
		c0-14.242,8.141-28.25,23.789-28.25c5.245,0,10.563,1.643,14.476,5.084c1.799,1.565,4.302,4.851,4.536,7.355
		c1.487-2.348,3.991-6.334,3.991-9.076C78.168,24.887,76.447,23.322,74.73,22.458z M148.884,102.35h-4.233
		c0.39,1.172-0.553,3.835-1.016,4.851c-2.351,5.79-5.49,13.043-7.918,17.96c-1.581-3.287-3.979-9.173-5.938-13.864
		c-1.016-2.348-1.798-4.403-2.814-6.751c-0.787-1.803-1.958-2.114-3.835-2.196c-1.172,0-2.648-0.078-3.898-0.078
		c4.696,10.018,9.388,20.109,13.534,30.439h3.991c3.991-9.699,8.53-19.093,12.988-28.636c0.082-0.156,0.156-0.316,0.156-0.553
		C149.9,102.898,149.51,102.35,148.884,102.35z M173.883,128.174c-2.43,1.172-6.494,1.25-9.157,1.25h-2.114
		c-1.172,0-1.172-0.623-1.172-1.643c-0.082-0.778-0.082-6.338-0.082-7.117v-2.352c3.057,0,8.22,0.078,11.038,0.938
		c0.078-0.782,0.156-1.643,0.156-2.425c0-1.406-1.021-1.799-2.271-1.799c-2.893,0-6.022,0.312-8.924,0.312c0-1.951,0-3.364,0-5.163
		c0-1.487,0.16-3.052,0.238-4.614c2.896,0,9.391,0,12.054,1.094c0-1.803,0-4.15-2.585-4.15h-15.963
		c0.311,0.393,0.549,1.253,0.627,1.725c0.233,3.68,0.233,7.355,0.233,11.03c0,5.088-0.233,10.173-0.233,15.262
		c0,1.25,0.393,2.032,1.798,2.032h14.005c1.331,0,2.352-0.705,2.352-2.114V128.174z M217.496,109.397
		c0-2.741,2.426-4.229,5.008-4.229c2.818,0,5.087,1.487,6.575,3.675c0.55-0.934,1.644-2.422,1.644-3.753
		c0-2.585-5.868-3.13-7.744-3.13c-5.326,0-10.488,2.814-10.488,8.526c0,10.178,14.242,7.358,14.242,14.012
		c0,3.204-2.268,5.236-5.479,5.236c-3.287,0-6.962-1.876-8.687-4.536c-0.233,1.172-0.779,2.422-0.779,3.675
		c0,1.25,0.468,2.192,1.644,2.737c1.877,1.02,4.303,1.569,6.417,1.569c6.022,0,11.813-3.446,11.813-10.095
		C231.661,113.543,217.496,116.436,217.496,109.397z M244.994,116.121c0-6.023,0.317-7.433,0.317-11.186
		c0-1.721-0.628-2.585-2.504-2.585h-3.602c0.312,2.974,0.472,6.183,0.472,14.086c0,7.51-0.316,9.235-0.316,13.771
		c0,1.565,0.786,2.503,2.349,2.503h3.758C245.155,129.268,244.994,124.184,244.994,116.121z M275.461,102.505h-22.146
		c-1.646,0-3.29,0.942-3.29,2.741v1.647c2.273-0.472,7.198-0.554,9.94-0.554c0.156,3.602,0.156,7.122,0.156,10.723
		c0,6.183-0.313,9.076-0.313,13.616c0,1.561,0.938,2.032,2.422,2.032h3.761c-0.467-4.302-0.467-8.608-0.467-15.414
		c0-3.597-0.082-8.297,0.073-10.957c2.976,0,5.876,0.394,7.981,0.394c1.488,0,1.881-1.488,1.881-2.741V102.505z M305.012,102.432
		l-3.986,0.074c-0.086,1.017-1.643,4.072-3.442,6.965c-1.65,2.741-3.444,5.478-4.15,6.494c-2.498-3.834-4.772-7.825-7.198-11.734
		c-0.782-1.332-1.795-1.725-3.29-1.725h-5.007c4.307,5.793,8.215,11.739,11.977,17.843v3.364c0,2.892-0.319,5.793-0.319,7.432
		c0,1.176,1.098,1.565,2.118,1.565h4.064c-0.391-4.302-0.464-8.608-0.464-12.989c2.188-3.757,4.691-7.354,7.195-10.878
		c1.099-1.565,2.192-3.048,3.212-4.536c0.233-0.315,0.389-0.626,0.389-1.016C306.109,102.665,305.565,102.432,305.012,102.432z
		 M230.765,50.941c0-4.458,0.156-8.919,0.234-13.3c0.082-2.348,0.319-4.773,0.319-7.121c0-1.176-1.176-1.803-2.196-1.803h-7.51
		c1.098,5.56,1.016,14.869,1.016,20.737c0,4.305-0.078,8.686-0.233,13.07c0,1.954-0.156,4.068-0.156,6.023
		c0,1.487,0.936,2.582,2.422,2.582c2.43,0,4.774-0.078,7.203-0.156C230.847,67.375,230.765,55.092,230.765,50.941z M270.033,22.928
		H242.18c1.566,2.741,1.488,22.142,1.488,26.136c0,8.371-0.787,20.343-0.787,25.121c0,1.561,0.709,3.048,2.505,3.048h8.295
		c-0.777-2.114-1.176-5.868-1.33-10.8c-0.156-4.38-0.156-9.781-0.156-15.882c1.176,0,3.364-0.237,4.851-0.237
		c4.384,0,8.691,0.082,12.756,1.802c0-1.175,0.314-2.347,0.314-3.519c0-1.803-1.569-2.585-3.208-2.585h-14.635
		c0-6.182,0.312-12.287,0.55-18.466c1.797,0,3.601-0.082,5.398-0.082c5.085,0,12.288,0.164,16.902,2.274v-0.234
		C275.123,25.981,274.105,22.928,270.033,22.928z M311.276,19.483h-32.242c1.1,6.342,1.256,17.843,1.256,31.147
		c0,10.722-0.862,28.874-0.862,32.082c0,2.032,1.173,3.13,3.205,3.13h8.22c-0.55-1.254-0.784-3.13-0.861-4.54
		c-0.709-9.625-0.942-19.405-0.942-29.029c1.332-0.082,4.462-0.315,4.934-0.315c4.613,0,11.029,0,15.258,1.802
		c0.39-1.016,0.942-2.114,0.942-3.208c0-2.425-2.507-2.974-4.462-2.974h-16.672c0-7.826,0.315-15.652,0.632-23.478h5.162
		c4.618,0,16.663,0,20.339,2.274c0.396-1.098,0.318-2.43,0.318-3.601C315.5,20.581,313.464,19.483,311.276,19.483z"/>
</g>
</svg>
